<?xml version="1.0" encoding="utf-8"?>
<!-- Generator: Adobe Illustrator 16.0.0, SVG Export Plug-In . SVG Version: 6.00 Build 0)  -->
<!DOCTYPE svg PUBLIC "-//W3C//DTD SVG 1.1//EN" "http://www.w3.org/Graphics/SVG/1.1/DTD/svg11.dtd">
<svg version="1.1" id="Calque_1" xmlns="http://www.w3.org/2000/svg" xmlns:xlink="http://www.w3.org/1999/xlink" x="0px" y="0px"
	 width="100px" height="30px" viewBox="0 0 841.9 595.3"
	 enable-background="new 219.507 379.503 173.708 33.856" xml:space="preserve">
<g>
	<path fill="#1C1A25" d="M250.588,386.749c-4.268,0-7.483,3.204-7.483,7.455c0,4.25,3.219,7.456,7.483,7.456
		c4.268,0,7.483-3.205,7.483-7.456C258.072,389.953,254.854,386.749,250.588,386.749z M250.588,397.785
		c-1.893,0-3.266-1.505-3.266-3.582c0-2.093,1.342-3.553,3.266-3.553c1.905,0,3.235,1.46,3.235,3.553
		C253.824,396.313,252.493,397.785,250.588,397.785z"/>
	<path fill="#1C1A25" d="M291.333,386.749c-4.152,0-7.168,3.137-7.168,7.455c0,4.338,3.064,7.483,7.284,7.483
		c3.365,0,4.87-1.139,6.333-3.108c0.025-0.033,0.034-0.076,0.028-0.115c-0.005-0.042-0.028-0.079-0.062-0.101l-2.672-1.925
		c-0.034-0.025-0.079-0.037-0.118-0.025c-0.042,0.008-0.079,0.031-0.101,0.065c-0.754,1.1-1.823,1.657-3.179,1.657
		c-1.013,0-2.743-0.38-3.128-2.881h9.394c0.084,0,0.155-0.07,0.155-0.155v-0.489C298.097,389.612,295.632,386.749,291.333,386.749z
		 M291.303,390.335c1.055,0,2.225,0.661,2.543,2.132h-5.16C289.086,391.128,290.051,390.335,291.303,390.335z"/>
	<path fill="#1C1A25" d="M325.507,387.063h-2.082v-4.847c0-0.054-0.028-0.102-0.07-0.129c-0.045-0.028-0.102-0.031-0.149-0.009
		l-3.91,1.812c-0.124,0.056-0.202,0.18-0.202,0.315v2.858h-2.054c-0.191,0-0.35,0.155-0.35,0.349v3.351
		c0,0.191,0.155,0.349,0.35,0.349h2.054v9.942c0,0.191,0.154,0.35,0.349,0.35h3.638c0.19,0,0.349-0.155,0.349-0.35v-9.942h2.082
		c0.191,0,0.349-0.155,0.349-0.349v-3.351C325.855,387.221,325.698,387.063,325.507,387.063z"/>
	<path fill="#1C1A25" d="M341.941,387.08l-4.112,1.914v6.439c-0.079,1.772-1.3,2.698-2.462,2.698c-1.21,0-2.431-0.866-2.431-2.805
		v-8.105c0-0.054-0.025-0.102-0.07-0.129c-0.045-0.028-0.102-0.034-0.149-0.012l-4.141,1.902l0,0v6.575
		c0,3.703,2.106,6.192,5.241,6.192c1.589,0,3.004-0.664,4.034-1.886c-0.014,0.167-0.022,0.315-0.022,0.437v0.948
		c0,0.084,0.07,0.155,0.154,0.155h4.181v-14.182c0-0.054-0.028-0.102-0.07-0.129C342.049,387.061,341.99,387.058,341.941,387.08z"/>
	<path fill="#1C1A25" d="M235.819,386.72c-1.654,0-3.151,0.695-4.262,1.966c-0.087,0.099-0.234,0.084-0.304-0.025
		c-0.701-1.103-1.804-1.724-3.205-1.874c-0.04-0.002-0.079,0.003-0.115,0.02l-8.311,3.812c-0.07,0.031-0.115,0.104-0.115,0.18
		v10.406c0,0.109,0.09,0.197,0.197,0.197h3.936c0.11,0,0.197-0.091,0.197-0.197v-8.747c0.053-1.336,1.105-2.034,2.116-2.034
		c0.954,0,1.916,0.61,1.916,1.972v8.809c0,0.109,0.09,0.197,0.197,0.197h3.936c0.11,0,0.197-0.091,0.197-0.197v-8.609
		c0-1.562,1.019-2.259,2.028-2.259c0.979,0,2.028,0.673,2.028,2.144v8.724c0,0.109,0.09,0.197,0.197,0.197h3.936
		c0.11,0,0.197-0.091,0.197-0.197v-9.011C240.601,388.766,238.815,386.72,235.819,386.72z"/>
	<path fill="#1C1A25" d="M276.882,386.72c-1.655,0-3.151,0.695-4.263,1.966c-0.087,0.099-0.233,0.084-0.304-0.025
		c-0.7-1.103-1.803-1.724-3.204-1.874c-0.04-0.002-0.079,0.003-0.115,0.02l-8.311,3.812c-0.07,0.031-0.115,0.104-0.115,0.18v10.406
		c0,0.109,0.09,0.197,0.197,0.197h3.936c0.11,0,0.197-0.091,0.197-0.197v-8.747c0.053-1.336,1.105-2.034,2.115-2.034
		c0.954,0,1.916,0.61,1.916,1.972v8.809c0,0.109,0.09,0.197,0.197,0.197h3.936c0.11,0,0.197-0.091,0.197-0.197v-8.609
		c0-1.562,1.019-2.259,2.028-2.259c0.979,0,2.029,0.673,2.029,2.144v8.724c0,0.109,0.09,0.197,0.197,0.197h3.936
		c0.11,0,0.197-0.091,0.197-0.197v-9.011C281.661,388.766,279.875,386.72,276.882,386.72z"/>
	<path fill="#1C1A25" d="M361.745,386.72c-1.654,0-3.151,0.695-4.263,1.966c-0.087,0.099-0.233,0.084-0.304-0.025
		c-0.7-1.103-1.804-1.724-3.204-1.874c-0.04-0.002-0.079,0.003-0.115,0.02l-8.311,3.812c-0.07,0.031-0.115,0.104-0.115,0.18v10.406
		c0,0.109,0.09,0.197,0.196,0.197h3.937c0.109,0,0.196-0.091,0.196-0.197v-8.747c0.054-1.336,1.105-2.034,2.116-2.034
		c0.953,0,1.916,0.61,1.916,1.972v8.809c0,0.109,0.09,0.197,0.196,0.197h3.936c0.11,0,0.197-0.091,0.197-0.197v-8.609
		c0-1.562,1.019-2.259,2.028-2.259c0.979,0,2.028,0.673,2.028,2.144v8.724c0,0.109,0.091,0.197,0.197,0.197h3.936
		c0.11,0,0.197-0.091,0.197-0.197v-9.011C366.527,388.766,364.738,386.72,361.745,386.72z"/>
	<path fill="#1C1A25" d="M309.904,386.808l-8.581,3.936c-0.109,0.051-0.177,0.158-0.177,0.279v10.074
		c0,0.169,0.138,0.308,0.307,0.308h3.722c0.169,0,0.307-0.139,0.307-0.308v-8.063c0.054-1.75,1.309-2.695,2.462-2.695
		c1.209,0,2.431,0.867,2.431,2.805v7.953c0,0.169,0.138,0.308,0.307,0.308h3.75c0.169,0,0.307-0.139,0.307-0.308v-8.183
		c0-3.46-1.854-5.835-4.656-6.13C310.02,386.774,309.96,386.782,309.904,386.808z"/>
</g>
<g>
	<g>
		<g>
			<path fill="#E52728" d="M387.742,395.146l-11.658,7.379c-0.759,0.481-1.747-0.064-1.747-0.962v-14.762
				c0-0.897,0.99-1.443,1.747-0.962l11.658,7.379C388.448,393.669,388.448,394.699,387.742,395.146z"/>
		</g>
		<g>
			<path fill="#E52728" d="M392.73,385.114l-5.815,3.68c-0.697,0.442-1.606-0.059-1.606-0.883v-7.359
				c0-0.824,0.909-1.325,1.606-0.884l5.815,3.68C393.378,383.758,393.378,384.703,392.73,385.114z"/>
		</g>
	</g>
	<g>
		<g>
			<path fill="#E52728" d="M302.916,409.37h-1.466v-0.456h3.429v0.456h-1.466v3.91h-0.498V409.37z"/>
		</g>
		<g>
			<path fill="#E52728" d="M307.057,408.914h3.157v0.45h-2.662v1.491h2.383v0.45h-2.383v1.527h2.695v0.45h-3.188v-4.369H307.057z"/>
		</g>
		<g>
			<path fill="#E52728" d="M312.296,411.111v-0.014c0-1.235,0.922-2.257,2.208-2.257c0.791,0,1.266,0.281,1.702,0.692l-0.338,0.363
				c-0.368-0.35-0.779-0.6-1.373-0.6c-0.968,0-1.69,0.785-1.69,1.789v0.015c0,1.01,0.729,1.803,1.69,1.803
				c0.6,0,0.99-0.23,1.41-0.63l0.323,0.318c-0.456,0.461-0.954,0.768-1.747,0.768C313.224,413.356,312.296,412.363,312.296,411.111z
				"/>
		</g>
		<g>
			<path fill="#E52728" d="M318.341,408.914h0.493v1.938h2.518v-1.938h0.492v4.366h-0.492v-1.964h-2.518v1.964h-0.493V408.914z"/>
		</g>
		<g>
			<path fill="#E52728" d="M324.336,408.914h0.462l2.751,3.5v-3.5h0.481v4.366h-0.394l-2.819-3.578v3.578h-0.481V408.914
				L324.336,408.914z"/>
		</g>
		<g>
			<path fill="#E52728" d="M330.323,411.111v-0.014c0-1.204,0.903-2.257,2.233-2.257c1.328,0,2.22,1.041,2.22,2.245v0.015
				c0,1.204-0.903,2.259-2.233,2.259C331.215,413.356,330.323,412.313,330.323,411.111z M334.265,411.111v-0.014
				c0-0.993-0.723-1.804-1.722-1.804s-1.708,0.799-1.708,1.79v0.014c0,0.993,0.723,1.803,1.722,1.803
				S334.265,412.102,334.265,411.111z"/>
		</g>
		<g>
			<path fill="#E52728" d="M337.069,408.914h0.492v3.911h2.456v0.455h-2.948V408.914L337.069,408.914z"/>
		</g>
		<g>
			<path fill="#E52728" d="M341.739,411.111v-0.014c0-1.204,0.903-2.257,2.233-2.257c1.328,0,2.22,1.041,2.22,2.245v0.015
				c0,1.204-0.902,2.259-2.233,2.259C342.631,413.356,341.739,412.313,341.739,411.111z M345.681,411.111v-0.014
				c0-0.993-0.723-1.804-1.722-1.804c-0.998,0-1.707,0.799-1.707,1.79v0.014c0,0.993,0.723,1.803,1.721,1.803
				C344.972,412.9,345.681,412.102,345.681,411.111z"/>
		</g>
		<g>
			<path fill="#E52728" d="M348.294,411.111v-0.014c0-1.199,0.878-2.257,2.189-2.257c0.736,0,1.189,0.212,1.626,0.58l-0.318,0.374
				c-0.337-0.292-0.711-0.498-1.327-0.498c-0.968,0-1.66,0.816-1.66,1.789v0.015c0,1.041,0.667,1.814,1.728,1.814
				c0.498,0,0.959-0.191,1.26-0.437v-1.086h-1.327v-0.441h1.803v1.738c-0.405,0.363-1.016,0.667-1.753,0.667
				C349.142,413.356,348.294,412.357,348.294,411.111z"/>
		</g>
		<g>
			<path fill="#E52728" d="M354.675,408.914h0.492v4.366h-0.492V408.914z"/>
		</g>
		<g>
			<path fill="#E52728" d="M357.696,408.914h3.156v0.45h-2.661v1.491h2.383v0.45h-2.383v1.527h2.695v0.45h-3.188v-4.369H357.696z"/>
		</g>
		<g>
			<path fill="#E52728" d="M362.839,412.645l0.307-0.363c0.456,0.411,0.893,0.619,1.497,0.619c0.585,0,0.974-0.312,0.974-0.742
				v-0.012c0-0.405-0.217-0.636-1.134-0.83c-1.005-0.216-1.466-0.543-1.466-1.26v-0.012c0-0.687,0.604-1.189,1.435-1.189
				c0.636,0,1.092,0.18,1.533,0.537l-0.287,0.38c-0.405-0.329-0.811-0.473-1.261-0.473c-0.567,0-0.928,0.313-0.928,0.703v0.015
				c0,0.41,0.225,0.641,1.185,0.847c0.973,0.211,1.423,0.568,1.423,1.234v0.012c0,0.748-0.624,1.234-1.491,1.234
				C363.931,413.343,363.362,413.112,362.839,412.645z"/>
		</g>
	</g>
</g>
</svg>
